<?xml version="1.0" encoding="UTF-8"?>
<!DOCTYPE svg PUBLIC "-//W3C//DTD SVG 1.1//EN" "http://www.w3.org/Graphics/SVG/1.1/DTD/svg11.dtd">
<!-- Creator: CorelDRAW 2019 (64-Bit) -->
<svg xmlns="http://www.w3.org/2000/svg" xml:space="preserve" width="45px" height="40px" version="1.1" style="shape-rendering:geometricPrecision; text-rendering:geometricPrecision; image-rendering:optimizeQuality; fill-rule:evenodd; clip-rule:evenodd"
viewBox="0 0 54.64 48.98"
 xmlns:xlink="http://www.w3.org/1999/xlink"
 xmlns:xodm="http://www.corel.com/coreldraw/odm/2003">
 <defs>
  <style type="text/css">
   <![CDATA[
    .str1 {stroke:#1F1C51;stroke-width:0.29;stroke-miterlimit:22.9256}
    .str2 {stroke:#1F1C51;stroke-width:0.12;stroke-miterlimit:22.9256}
    .str0 {stroke:#FEFEFE;stroke-width:0.04;stroke-miterlimit:22.9256}
    .str3 {stroke:#373435;stroke-width:0.04;stroke-miterlimit:22.9256}
    .fil3 {fill:none}
    .fil2 {fill:#FEFEFE}
    .fil6 {fill:#3E4095}
    .fil1 {fill:#1F1C51}
    .fil4 {fill:#1F1C51}
    .fil5 {fill:#3C438B}
    .fil0 {fill:#FCFCFD}
   ]]>
  </style>
 </defs>
 <g id="Capa_x0020_1">
  <metadata id="CorelCorpID_0Corel-Layer"/>
  <g id="_2707787497328">
   <path class="fil0" d="M10.79 21.22c-0.74,0.94 -1.39,1.78 -2.29,2.91l-2.49 4c3.28,2.14 7.2,1.37 8.35,0.94 0.34,-0.13 1.01,-0.36 1.35,-0.5 4.5,-1.89 8.5,-5.89 15.88,-10.47 -1.48,0.18 -2.75,0.53 -4.14,0.95 -1.63,0.49 -3.09,0.96 -5.7,1.69 -1.44,0.4 -3.89,0.44 -6.2,0.43 -1.87,-0.01 -3.66,-0.05 -4.76,0.05z"/>
   <path class="fil1 str0" d="M45.76 20.93c0.63,-4.99 6.2,-10.12 8.84,-13.21 -4.95,-0.51 -8.58,-0.31 -10.84,1.8 -3.54,3.31 -5.11,6.95 -7.23,7.81 -2.06,0.67 -4.84,-0.98 -3.4,-3.61 3.93,-7.15 7.53,-10.73 6.22,-12.58 -1.31,-1.84 -4.81,-1.45 -8.96,1.46 -6.17,4.37 -16.13,13.87 -19.88,18.99 -3.46,4.28 -5.92,8.76 -7.28,13.11 -1.03,3.31 -1.72,7.79 -0.85,9.53 -1.48,1.32 -2.35,2.08 -2.35,2.08 1.65,1.73 3.66,2.66 6.06,2.65 2.84,-0.01 5.44,-1.26 7.69,-2.92 0.01,1.2 0.05,2.02 0.05,2.02 17.59,-0.04 26.29,-0.09 26.29,-0.09 3.98,-2.58 4.75,-6.07 5.01,-10.04 0.22,-3.32 0.47,-6.66 0.45,-9.57 -0.02,-3.35 -0.02,-6 0.18,-7.43z"/>
   <path class="fil2" d="M25.28 25.28c-3.7,3.61 -5,4.95 -7.96,7.22 -5.89,4.02 -12.14,2.74 -13.87,1.54l-0.43 1.33 -0.3 1.11 -0.25 1.2 -0.2 1.08c-0.48,2.64 -1.86,9.94 8.08,7.53 2.54,-0.75 5.45,-3.22 6.9,-5.15 0.96,-1.27 0.63,-1.58 2.69,-1.89 -0.7,2.6 -2.4,5.77 -1.91,5.97 0.77,0.94 2.79,1.13 4.27,0.11l1.63 -4.71c0.1,0.93 -1.56,5.29 -0.57,5.13 1.46,0.05 6.51,0.02 7.39,0.02l11.87 0.02c1.11,-1.25 2.07,-3.45 2.24,-5.32 0.22,-2.55 -2.67,-6.08 -3.76,-8.4l4.39 0 0.06 -1.52 0.02 -1.01 0.06 -4.8 -9.69 -0.01c-3.01,3.33 1.18,7.55 2.17,10.15 -2.73,0 -3.88,-0.35 -4.15,1.82 -0.44,-1.56 0.16,-1.34 -4.66,-1.36 0.3,-3.2 2.75,-10.35 2.21,-10.34 -3.23,0.02 -3.03,0.85 -3.85,2.96 0.73,-2.09 0.29,-3.9 -2.38,-2.68z"/>
   <ellipse class="fil2" transform="matrix(2.44371 -0.810279 0.910659 2.17435 48.1656 9.70555)" rx="0.51" ry="0.3"/>
   <path class="fil3 str1" d="M28.17 25.66c-0.75,3.08 -3.49,12.45 -5.07,18.11"/>
   <path class="fil3 str1" d="M33.96 35.94c-0.47,3.43 -1.18,7.74 -2.24,10.3"/>
   <path class="fil4 str2" d="M32.04 45.77c0.18,-0.62 0.16,-0.89 0.16,-0.89 -0.34,0.63 -0.58,0.77 -0.93,0.89 0.36,0 0.77,0 0.77,0z"/>
   <path class="fil4 str3" d="M23.04 31.65c-1.04,1.71 -2.08,2.5 -2.93,3.45 1.3,0.01 1.77,0.02 1.77,0.02 0.88,-2.63 1.16,-3.47 1.16,-3.47z"/>
   <path class="fil2" d="M18.1 28.44c8.32,-5.6 13.23,-9.39 15.11,-10.6 0.99,-0.62 1.09,-0.65 0.72,-0.52 -3.5,1.4 -19.12,5.67 -23.14,3.9 -1.89,2.22 -3.52,4.62 -4.88,7.22 3.11,3.26 7.17,3.26 12.19,0z"/>
   <path class="fil5" d="M14.06 17.36l-1.89 2.13c-0.55,0.64 -0.91,1.12 -1.42,1.79 0.75,1.27 4.59,1.78 9.33,0.55 4.05,-1.31 11.31,-3.53 14.13,-4.61 -10.5,5.98 -21.18,19.05 -28.3,11.22l-1.14 2.26 -0.7 1.62 -0.68 1.89c-0.27,0.83 8.76,2.5 13.92,-1.49 4.85,-3.75 13.28,-13.37 16.93,-15.49 -0.01,-0.01 -0.01,-0.01 -0.05,-0.03 -2.22,0.84 -7.28,1.28 -10.3,1.36 -3.41,0.09 -8.6,-0.36 -9.83,-1.2z"/>
   <polygon class="fil6" points="12.23,23.99 12.38,24.49 12.87,24.49 12.47,24.79 12.63,25.28 12.23,24.98 11.83,25.28 11.98,24.79 11.58,24.49 12.08,24.49 "/>
   <polygon class="fil6" points="10.33,26.86 10.48,27.35 10.97,27.35 10.57,27.65 10.72,28.15 10.33,27.84 9.93,28.15 10.08,27.65 9.68,27.35 10.17,27.35 "/>
   <polygon class="fil6" points="13.42,26.11 13.58,26.6 14.07,26.6 13.67,26.9 13.82,27.4 13.42,27.09 13.02,27.4 13.18,26.9 12.78,26.6 13.27,26.6 "/>
   <polygon class="fil6" points="15.84,24.14 15.99,24.63 16.48,24.63 16.08,24.94 16.24,25.43 15.84,25.12 15.44,25.43 15.59,24.94 15.19,24.63 15.68,24.63 "/>
   <polygon class="fil6" points="15.85,26.91 16,27.41 16.49,27.41 16.09,27.71 16.24,28.2 15.85,27.9 15.45,28.2 15.6,27.71 15.2,27.41 15.69,27.41 "/>
   <path class="fil4 str2" d="M32.02 45.77c0.19,-0.62 0.3,-1.01 0.3,-1.01 -0.11,0.58 0.31,1.02 0.81,1.08 -0.37,0 -1.11,-0.07 -1.11,-0.07z"/>
  </g>
 </g>
</svg>
